# xmcd
#
# Track frame offsets: 
#        150
#        2313
#        19095
#        42048
#        58601
#        74674
#        95536
#        110469
#        130527
#        145403
#        160816
#
# Disc length: 2448 seconds
#
# Revision: 0
# Processed by: cddbd v1.5.2PL0 Copyright (c) Steve Scherf et al.
# Submitted via: ExactAudioCopy v1.0b4
#
DISCID=89098e0b
DTITLE=Dry Johnson - Long Live Them Blues Vol. 1
DYEAR=2018
DGENRE=Blues
TTITLE0=DJ Intro
TTITLE1=Daddy's Got A Cadillac
TTITLE2=Long Live Them Blues
TTITLE3=Hit The Highway
TTITLE4=Drunk Girl With A Tambourine
TTITLE5=Too Many Hipsters
TTITLE6=Juke Joint
TTITLE7=I Walk Alone
TTITLE8=Trashy Women and Cheap Guitars
TTITLE9=Fried Chicken
TTITLE10=Little Bird
EXTD=
EXTT0=
EXTT1=
EXTT2=
EXTT3=
EXTT4=
EXTT5=
EXTT6=
EXTT7=
EXTT8=
EXTT9=
EXTT10=
PLAYORDER=
